# xmcd
# 
# Track frame offsets:
#     150
#     23020
#     49232
#     72022
# 
# Disc length: 1305
# 
# Revision: 6
# Processed by: cddbd v1.5.2PL0 Copyright (c) Steve Scherf et al.
# Submitted via: BonkEnc v1.0.8
# 
DISCID=2b051704
DTITLE=コブクロ - 君という名の翼
DYEAR=2006
DGENRE=Pop
TTITLE0=君というの名の翼
TTITLE1=あなたへと続く道
TTITLE2=君というの名の翼（Instrumental）
TTITLE3=あなたへと続く道（Instrumental）
EXTD=YEAR: 2006
EXTT0=
EXTT1=
EXTT2=
EXTT3=
PLAYORDER=
